<?xml version="1.0" encoding="UTF-8" standalone="no" ?>
<!DOCTYPE svg PUBLIC "-//W3C//DTD SVG 1.1//EN" "http://www.w3.org/Graphics/SVG/1.1/DTD/svg11.dtd">
<svg xmlns="http://www.w3.org/2000/svg" xmlns:xlink="http://www.w3.org/1999/xlink" version="1.1" width="1080" height="1080" viewBox="0 0 1080 1080" xml:space="preserve">
<desc>Created with Fabric.js 5.2.4</desc>
<defs>
</defs>
<g transform="matrix(1 0 0 1 540 540)" id="3a913414-aa97-475a-978e-49d51d1db272"  >
<rect style="stroke: none; stroke-width: 1; stroke-dasharray: none; stroke-linecap: butt; stroke-dashoffset: 0; stroke-linejoin: miter; stroke-miterlimit: 4; fill: rgb(255,255,255); fill-rule: nonzero; opacity: 1; visibility: hidden;" vector-effect="non-scaling-stroke"  x="-540" y="-540" rx="0" ry="0" width="1080" height="1080" />
</g>
<g transform="matrix(1 0 0 1 540 540)" id="c4ba431b-e189-4db1-8ded-1f353f5a34cd"  >
</g>
<g transform="matrix(-1 0 0 -1 540 540)"  >
<g style="" vector-effect="non-scaling-stroke"   >
		<g transform="matrix(1 0 0 1 0 0)"  >
<path style="stroke: rgb(0,0,0); stroke-width: 2; stroke-dasharray: none; stroke-linecap: butt; stroke-dashoffset: 0; stroke-linejoin: miter; stroke-miterlimit: 4; fill: none; fill-rule: nonzero; opacity: 1;" vector-effect="non-scaling-stroke"  transform=" translate(-173.54, -174.61)" d="M 5.08 5.776 L 341.99 5.776 L 341.99 343.446 L 5.08 343.446 z" stroke-linecap="round" />
</g>
		<g transform="matrix(1 0 0 1 124.76 -134.06)"  >
<path style="stroke: rgb(0,0,0); stroke-width: 2; stroke-dasharray: none; stroke-linecap: butt; stroke-dashoffset: 0; stroke-linejoin: miter; stroke-miterlimit: 4; fill: none; fill-rule: nonzero; opacity: 1;" vector-effect="non-scaling-stroke"  transform=" translate(-298.29, -40.55)" d="M 282.734 40.554 C 282.734 32.178000000000004 289.7 25.389000000000003 298.294 25.389000000000003 C 302.41999999999996 25.389000000000003 306.377 26.979000000000003 309.294 29.829000000000004 C 312.214 32.669000000000004 313.854 36.529 313.854 40.54900000000001 C 313.854 48.919000000000004 306.887 55.709 298.294 55.709 C 289.7 55.709 282.734 48.919000000000004 282.734 40.539 z" stroke-linecap="round" />
</g>
		<g transform="matrix(1 0 0 1 -43.52 -96.61)"  >
<path style="stroke: rgb(0,0,0); stroke-width: 5; stroke-dasharray: none; stroke-linecap: butt; stroke-dashoffset: 0; stroke-linejoin: miter; stroke-miterlimit: 4; fill: none; fill-rule: nonzero; opacity: 1;" vector-effect="non-scaling-stroke"  transform=" translate(-130.01, -78)" d="M 200 63 L 199.582 61.597 L 198.44 59.747 L 196.745 57.611 L 194.665 55.361 L 192.37199999999999 53.150999999999996 L 190.03199999999998 51.150999999999996 L 187.819 49.520999999999994 L 185.899 48.42099999999999 L 184.439 48.020999999999994 L 75.55 48.020999999999994 L 74.094 48.43099999999999 L 72.17399999999999 49.53099999999999 L 69.96 51.16899999999999 L 67.61999999999999 53.17399999999999 L 65.32799999999999 55.38799999999999 L 63.24799999999999 57.64099999999999 L 61.55399999999999 59.776999999999994 L 60.41099999999999 61.626999999999995 L 60 63 L 60 93 L 60.418 94.403 L 61.56 96.253 L 63.255 98.389 L 65.33500000000001 100.639 L 67.62800000000001 102.84899999999999 L 69.96800000000002 104.84899999999999 L 72.18100000000001 106.47899999999998 L 74.10100000000001 107.57899999999998 L 75.561 107.97899999999998 L 184.45100000000002 107.97899999999998 L 185.91100000000003 107.56899999999999 L 187.83100000000002 106.469 L 190.05100000000002 104.832 L 192.39100000000002 102.82799999999999 L 194.69100000000003 100.618 L 196.77100000000004 98.363 L 198.47100000000003 96.225 L 199.61500000000004 94.375 L 200.02500000000003 92.975 z" stroke-linecap="round" />
</g>
		<g transform="matrix(1 0 0 1 -43.59 -96.52)"  >
<path style="stroke: none; stroke-width: 1; stroke-dasharray: none; stroke-linecap: butt; stroke-dashoffset: 0; stroke-linejoin: miter; stroke-miterlimit: 4; fill: rgb(0,0,0); fill-rule: nonzero; opacity: 1;" vector-effect="non-scaling-stroke"  transform=" translate(-129.94, -78.09)" d="M 91.54 88.336 C 94.07000000000001 88.323 96.04 87.754 97.453 86.632 C 98.86500000000001 85.509 99.583 83.912 99.605 81.84 C 99.551 80.135 99.01 78.866 97.982 78.034 C 96.954 77.20400000000001 95.764 76.62400000000001 94.412 76.30000000000001 C 93.05900000000001 75.97500000000001 91.86800000000001 75.72000000000001 90.84 75.53600000000002 C 89.812 75.35200000000002 89.27000000000001 75.05600000000001 89.217 74.64400000000002 C 89.207 74.40100000000002 89.30499999999999 74.20100000000002 89.511 74.04600000000002 C 89.72099999999999 73.89000000000001 90.101 73.80900000000003 90.651 73.80400000000002 C 91.551 73.80400000000002 92.481 73.95800000000001 93.451 74.26600000000002 C 94.42099999999999 74.57400000000003 95.31099999999999 75.03600000000002 96.14099999999999 75.65200000000002 L 99.17099999999999 71.64800000000001 C 98.101 70.78000000000002 96.901 70.12800000000001 95.56099999999999 69.69500000000001 C 94.22099999999999 69.26100000000001 92.791 69.045 91.25099999999999 69.045 C 88.69099999999999 69.105 86.761 69.74 85.451 70.952 C 84.151 72.16199999999999 83.50099999999999 73.59 83.50099999999999 75.232 C 83.559 77.04 84.10099999999998 78.372 85.13099999999999 79.232 C 86.16099999999999 80.092 87.35099999999998 80.678 88.71099999999998 80.99 C 90.06599999999999 81.3 91.26099999999998 81.538 92.29099999999998 81.69999999999999 C 93.32099999999998 81.865 93.86099999999998 82.15299999999999 93.91799999999998 82.56799999999998 C 93.89799999999998 82.92799999999998 93.68799999999997 83.18799999999999 93.28199999999998 83.34499999999998 C 92.87199999999999 83.50299999999999 92.39199999999998 83.57999999999998 91.84199999999998 83.57499999999999 C 90.57699999999998 83.55999999999999 89.43199999999999 83.32499999999999 88.41199999999998 82.87499999999999 C 87.39199999999998 82.42499999999998 86.53199999999998 81.85499999999999 85.82199999999997 81.16799999999999 L 82.88199999999998 85.368 C 83.86599999999997 86.276 85.06199999999998 86.994 86.47799999999998 87.524 C 87.88799999999998 88.054 89.58199999999998 88.324 91.55799999999998 88.336 z M 115.517 88 L 115.517 74.476 L 110.47699999999999 74.476 L 110.47699999999999 82.82 C 110.27499999999999 83.073 110.00699999999999 83.30999999999999 109.67699999999999 83.52999999999999 C 109.344 83.75199999999998 108.90199999999999 83.86999999999999 108.34899999999999 83.88399999999999 C 107.719 83.88999999999999 107.23899999999999 83.74399999999999 106.89899999999999 83.44699999999999 C 106.55899999999998 83.14699999999999 106.37899999999999 82.65999999999998 106.37899999999999 81.97999999999999 L 106.37899999999999 74.47599999999998 L 101.33899999999998 74.47599999999998 L 101.33899999999998 84.13599999999998 C 101.32899999999998 85.32799999999997 101.67899999999999 86.31799999999998 102.39899999999999 87.10799999999998 C 103.11899999999999 87.89799999999997 104.24899999999998 88.30599999999997 105.80899999999998 88.33599999999997 C 106.98899999999999 88.31299999999997 107.96899999999998 88.11399999999998 108.72899999999998 87.73799999999997 C 109.48899999999999 87.36099999999998 110.05899999999998 86.94499999999996 110.44899999999998 86.48799999999997 L 110.44899999999998 88 z M 123.342 82.988 L 123.342 79.516 C 123.596 79.22 123.922 78.99300000000001 124.319 78.834 C 124.709 78.674 125.089 78.59400000000001 125.43900000000001 78.592 C 126.13900000000001 78.597 126.72900000000001 78.825 127.209 79.278 C 127.679 79.73100000000001 127.929 80.378 127.949 81.224 C 127.929 82.08200000000001 127.679 82.739 127.199 83.194 C 126.719 83.65 126.129 83.88000000000001 125.419 83.884 C 125.069 83.884 124.689 83.808 124.29899999999999 83.657 C 123.89899999999999 83.505 123.56899999999999 83.283 123.31899999999999 82.987 z M 123.342 88 L 123.342 86.572 C 123.917 87.209 124.524 87.664 125.16199999999999 87.937 C 125.8 88.21 126.46199999999999 88.343 127.14999999999999 88.337 C 128.832 88.33 130.23499999999999 87.727 131.35999999999999 86.523 C 132.486 85.32 133.07 83.553 133.11399999999998 81.223 C 133.07399999999998 78.969 132.49599999999998 77.228 131.38199999999998 76.003 C 130.26699999999997 74.776 128.85599999999997 74.155 127.14999999999998 74.14 C 126.45799999999998 74.133 125.78499999999998 74.266 125.12999999999998 74.54 C 124.47699999999998 74.81200000000001 123.87999999999998 75.26700000000001 123.34199999999998 75.90400000000001 L 123.34199999999998 69.32400000000001 L 118.30199999999998 69.32400000000001 L 118.30199999999998 88 z M 157.298 88 L 157.298 78.2 C 157.28 76.806 156.89600000000002 75.78 156.14600000000002 75.12 C 155.39600000000002 74.46000000000001 154.39000000000001 74.134 153.126 74.14 C 152.022 74.166 151.058 74.416 150.23600000000002 74.89 C 149.41100000000003 75.363 148.79600000000002 75.907 148.394 76.52 C 148.08100000000002 75.68599999999999 147.594 75.08 146.931 74.7 C 146.27100000000002 74.32000000000001 145.461 74.134 144.51100000000002 74.14 C 143.41100000000003 74.17 142.461 74.39 141.67100000000002 74.795 C 140.89100000000002 75.2 140.341 75.607 140.03100000000003 76.015 L 140.03100000000003 74.475 L 134.99100000000004 74.475 L 134.99100000000004 88 L 140.03100000000003 88 L 140.03100000000003 79.656 C 140.20100000000002 79.44000000000001 140.44100000000003 79.21400000000001 140.77100000000004 78.976 C 141.10100000000006 78.74 141.54100000000005 78.612 142.08100000000005 78.592 C 142.65100000000004 78.604 143.05100000000004 78.755 143.28100000000003 79.044 C 143.52100000000004 79.332 143.63100000000003 79.68599999999999 143.62100000000004 80.104 L 143.62100000000004 88 L 148.66100000000003 88 L 148.66100000000003 79.656 C 148.83100000000002 79.44000000000001 149.07100000000003 79.21400000000001 149.40100000000004 78.976 C 149.73100000000005 78.74 150.18100000000004 78.612 150.73100000000005 78.592 C 151.29100000000005 78.604 151.68100000000004 78.755 151.92100000000005 79.044 C 152.16100000000006 79.332 152.28100000000006 79.68599999999999 152.27100000000004 80.104 L 152.27100000000004 88 z M 162.604 73.496 C 163.407 73.476 164.074 73.201 164.60600000000002 72.67 C 165.13600000000002 72.14 165.41200000000003 71.47200000000001 165.43200000000002 70.668 C 165.412 69.864 165.13600000000002 69.19800000000001 164.60600000000002 68.66600000000001 C 164.07600000000002 68.13600000000001 163.40600000000003 67.86000000000001 162.604 67.84000000000002 C 161.8 67.86000000000001 161.132 68.13500000000002 160.602 68.66600000000001 C 160.072 69.19600000000001 159.79500000000002 69.864 159.776 70.668 C 159.79600000000002 71.47200000000001 160.071 72.138 160.602 72.67 C 161.132 73.2 161.8 73.476 162.604 73.496 z M 165.124 88 L 165.124 74.476 L 160.084 74.476 L 160.084 88 z M 173.588 88.336 C 174.444 88.328 175.16 88.239 175.738 88.066 C 176.313 87.894 176.735 87.686 177.004 87.44 L 176.108 83.632 C 176.04500000000002 83.69200000000001 175.918 83.748 175.73000000000002 83.80000000000001 C 175.54000000000002 83.85300000000001 175.33 83.88000000000001 175.10000000000002 83.88400000000001 C 174.76000000000002 83.87400000000001 174.48800000000003 83.75400000000002 174.288 83.51700000000001 C 174.08800000000002 83.28000000000002 173.984 82.983 173.98000000000002 82.62400000000001 L 173.98000000000002 78.84400000000001 L 176.72400000000002 78.84400000000001 L 176.72400000000002 74.47600000000001 L 173.98000000000002 74.47600000000001 L 173.98000000000002 70.78 L 168.94000000000003 70.78 L 168.94000000000003 74.476 L 166.70000000000002 74.476 L 166.70000000000002 78.844 L 168.94000000000003 78.844 L 168.94000000000003 84.08 C 168.94600000000003 85.495 169.34600000000003 86.557 170.14000000000001 87.27 C 170.93400000000003 87.97999999999999 172.08300000000003 88.335 173.58800000000002 88.336 z" stroke-linecap="round" />
</g>
		<g transform="matrix(1 0 0 1 1.47 49.64)"  >
<path style="stroke: rgb(0,0,0); stroke-width: 3; stroke-dasharray: none; stroke-linecap: butt; stroke-dashoffset: 0; stroke-linejoin: miter; stroke-miterlimit: 4; fill: none; fill-rule: nonzero; opacity: 1;" vector-effect="non-scaling-stroke"  transform=" translate(-175, -224.25)" d="M 112.5 143.12626 L 112.1917 141.69564 L 111.34303 140.0052 L 110.06828 138.16928000000001 L 108.48176000000001 136.30220000000003 L 106.69781 134.51824000000002 L 104.83071000000001 132.93174000000002 L 102.99481000000002 131.65697000000003 L 101.30441000000002 130.80830000000003 L 99.87381000000002 130.50000000000003 L 62.6263 130.50000000000003 L 61.19567 130.80830000000003 L 59.50524 131.65697000000003 L 57.66934 132.93173000000002 L 55.80224 134.51823000000002 L 54.01828 136.30220000000003 L 52.431779999999996 138.16928000000001 L 51.15703 140.0052 L 50.30833 141.69564 L 50 143.12626 L 50 180.37374 L 50.3083 181.80436 L 51.156980000000004 183.4948 L 52.43173 185.33071999999999 L 54.01823 187.19779999999997 L 55.80219 188.98175999999998 L 57.669290000000004 190.56825999999998 L 59.505190000000006 191.84301999999997 L 61.19559 192.69169999999997 L 62.62619 192.99999999999997 L 99.87369000000001 192.99999999999997 L 101.30429000000001 192.69169999999997 L 102.99471000000001 191.84301999999997 L 104.83061000000001 190.56826999999996 L 106.69771 188.98176999999995 L 108.48166 187.19779999999994 L 110.06818 185.33071999999996 L 111.34291999999999 183.49479999999997 L 112.19157 181.80435999999997 L 112.49987 180.37373999999997 z M 175 143.12626 L 174.6917 141.69564 L 173.84302 140.0052 L 172.56826999999998 138.16928000000001 L 170.98176999999998 136.30220000000003 L 169.19780999999998 134.51824000000002 L 167.33070999999998 132.93174000000002 L 165.49480999999997 131.65697000000003 L 163.80440999999996 130.80830000000003 L 162.37380999999996 130.50000000000003 L 125.12630999999996 130.50000000000003 L 123.69570999999996 130.80830000000003 L 122.00528999999996 131.65697000000003 L 120.16938999999996 132.93173000000002 L 118.30228999999997 134.51823000000002 L 116.51833999999997 136.30220000000003 L 114.93183999999997 138.16928000000001 L 113.65706999999996 140.0052 L 112.80842999999996 141.69564 L 112.50012999999996 143.12626 L 112.50012999999996 180.37374 L 112.80842999999996 181.80436 L 113.65710999999996 183.4948 L 114.93187999999996 185.33071999999999 L 116.51837999999996 187.19779999999997 L 118.30233999999996 188.98175999999998 L 120.16943999999995 190.56825999999998 L 122.00533999999995 191.84301999999997 L 123.69576999999995 192.69169999999997 L 125.12636999999995 192.99999999999997 L 162.37383999999994 192.99999999999997 L 163.80443999999994 192.69169999999997 L 165.49483999999995 191.84301999999997 L 167.33073999999996 190.56826999999996 L 169.19783999999996 188.98176999999995 L 170.98180999999997 187.19779999999994 L 172.56830999999997 185.33071999999996 L 173.84303999999997 183.49479999999997 L 174.69173999999998 181.80435999999997 L 175.00003999999998 180.37373999999997 z M 237.5 143.12626 L 237.1917 141.69564 L 236.34302 140.0052 L 235.06826999999998 138.16928000000001 L 233.48176999999998 136.30220000000003 L 231.69780999999998 134.51824000000002 L 229.83070999999998 132.93174000000002 L 227.99480999999997 131.65697000000003 L 226.30440999999996 130.80830000000003 L 224.87380999999996 130.50000000000003 L 187.62630999999996 130.50000000000003 L 186.19570999999996 130.80830000000003 L 184.50528999999997 131.65697000000003 L 182.66938999999996 132.93173000000002 L 180.80228999999997 134.51823000000002 L 179.01833999999997 136.30220000000003 L 177.43181999999996 138.16928000000001 L 176.15707999999995 140.0052 L 175.30843999999996 141.69564 L 175.00013999999996 143.12626 L 175.00013999999996 180.37374 L 175.30843999999996 181.80436 L 176.15711999999996 183.4948 L 177.43187999999995 185.33071999999999 L 179.01837999999995 187.19779999999997 L 180.80233999999996 188.98175999999998 L 182.66943999999995 190.56825999999998 L 184.50533999999996 191.84301999999997 L 186.19576999999995 192.69169999999997 L 187.62636999999995 192.99999999999997 L 224.87384999999995 192.99999999999997 L 226.30448999999996 192.69169999999997 L 227.99491999999995 191.84301999999997 L 229.83081999999996 190.56826999999996 L 231.69791999999995 188.98176999999995 L 233.48187999999996 187.19779999999994 L 235.06837999999996 185.33071999999996 L 236.34311999999997 183.49479999999997 L 237.19179999999997 181.80435999999997 L 237.50009999999997 180.37373999999997 z M 300 143.12626 L 299.6917 141.69564 L 298.84302 140.0052 L 297.56827000000004 138.16928000000001 L 295.98177000000004 136.30220000000003 L 294.19781000000006 134.51824000000002 L 292.33071000000007 132.93174000000002 L 290.4948100000001 131.65697000000003 L 288.8044100000001 130.80830000000003 L 287.37381000000005 130.50000000000003 L 250.12631000000005 130.50000000000003 L 248.69571000000005 130.80830000000003 L 247.00529000000006 131.65697000000003 L 245.16939000000005 132.93173000000002 L 243.30229000000006 134.51823000000002 L 241.51834000000005 136.30220000000003 L 239.93182000000004 138.16928000000001 L 238.65708000000004 140.0052 L 237.80844000000005 141.69564 L 237.50014000000004 143.12626 L 237.50014000000004 180.37374 L 237.80844000000005 181.80436 L 238.65712000000005 183.4948 L 239.93188000000004 185.33071999999999 L 241.51838000000004 187.19779999999997 L 243.30234000000004 188.98175999999998 L 245.16944000000004 190.56825999999998 L 247.00534000000005 191.84301999999997 L 248.69577000000004 192.69169999999997 L 250.12637000000004 192.99999999999997 L 287.37385000000006 192.99999999999997 L 288.80449000000004 192.69169999999997 L 290.49492000000004 191.84301999999997 L 292.33082 190.56826999999996 L 294.19792 188.98176999999995 L 295.98188 187.19779999999994 L 297.56838 185.33071999999996 L 298.84312 183.49479999999997 L 299.6918 181.80435999999997 L 300.0001 180.37373999999997 z M 112.5 205.62626 L 112.1917 204.19564 L 111.34303 202.5052 L 110.06828 200.66928000000001 L 108.48176000000001 198.80220000000003 L 106.69781 197.01824000000002 L 104.83071000000001 195.43172 L 102.99481000000002 194.15697 L 101.30441000000002 193.3083 L 99.8738 193 L 62.6263 193 L 61.19568 193.3083 L 59.505250000000004 194.15697 L 57.66935 195.43172 L 55.80225 197.01824000000002 L 54.01829 198.80220000000003 L 52.43179 200.66928000000001 L 51.15702 202.5052 L 50.30832 204.19564 L 50 205.62626 L 50 242.87374 L 50.3083 244.30436 L 51.156980000000004 245.9948 L 52.43173 247.83071999999999 L 54.01823 249.69779999999997 L 55.80219 251.48175999999998 L 57.669290000000004 253.06825999999998 L 59.505190000000006 254.34301999999997 L 61.19559 255.19169999999997 L 62.62619 255.49999999999997 L 99.87369000000001 255.49999999999997 L 101.30429000000001 255.19169999999997 L 102.99471000000001 254.34301999999997 L 104.83061000000001 253.06826999999996 L 106.69771 251.48176999999995 L 108.48166 249.69779999999994 L 110.06818 247.83071999999996 L 111.34291999999999 245.99479999999997 L 112.19157 244.30435999999997 L 112.49987 242.87373999999997 z M 175 205.62626 L 174.6917 204.19564 L 173.84302 202.5052 L 172.56826999999998 200.66928000000001 L 170.98176999999998 198.80220000000003 L 169.19780999999998 197.01824000000002 L 167.33070999999998 195.43172 L 165.49480999999997 194.15697 L 163.80440999999996 193.3083 L 162.37380999999996 193 L 125.12630999999996 193 L 123.69570999999996 193.3083 L 122.00528999999996 194.15697 L 120.16938999999996 195.43172 L 118.30228999999997 197.01824000000002 L 116.51833999999997 198.80220000000003 L 114.93183999999997 200.66928000000001 L 113.65706999999996 202.5052 L 112.80842999999996 204.19564 L 112.50012999999996 205.62626 L 112.50012999999996 242.87374 L 112.80842999999996 244.30436 L 113.65710999999996 245.9948 L 114.93187999999996 247.83071999999999 L 116.51837999999996 249.69779999999997 L 118.30233999999996 251.48175999999998 L 120.16943999999995 253.06825999999998 L 122.00533999999995 254.34301999999997 L 123.69576999999995 255.19169999999997 L 125.12636999999995 255.49999999999997 L 162.37383999999994 255.49999999999997 L 163.80443999999994 255.19169999999997 L 165.49483999999995 254.34301999999997 L 167.33073999999996 253.06826999999996 L 169.19783999999996 251.48176999999995 L 170.98180999999997 249.69779999999994 L 172.56830999999997 247.83071999999996 L 173.84303999999997 245.99479999999997 L 174.69173999999998 244.30435999999997 L 175.00003999999998 242.87373999999997 z M 237.5 205.62626 L 237.1917 204.19564 L 236.34302 202.5052 L 235.06826999999998 200.66928000000001 L 233.48176999999998 198.80220000000003 L 231.69780999999998 197.01824000000002 L 229.83070999999998 195.43172 L 227.99480999999997 194.15697 L 226.30440999999996 193.3083 L 224.87380999999996 193 L 187.62630999999996 193 L 186.19570999999996 193.3083 L 184.50528999999997 194.15697 L 182.66938999999996 195.43172 L 180.80228999999997 197.01824000000002 L 179.01833999999997 198.80220000000003 L 177.43181999999996 200.66928000000001 L 176.15707999999995 202.5052 L 175.30843999999996 204.19564 L 175.00013999999996 205.62626 L 175.00013999999996 242.87374 L 175.30843999999996 244.30436 L 176.15711999999996 245.9948 L 177.43187999999995 247.83071999999999 L 179.01837999999995 249.69779999999997 L 180.80233999999996 251.48175999999998 L 182.66943999999995 253.06825999999998 L 184.50533999999996 254.34301999999997 L 186.19576999999995 255.19169999999997 L 187.62636999999995 255.49999999999997 L 224.87384999999995 255.49999999999997 L 226.30448999999996 255.19169999999997 L 227.99491999999995 254.34301999999997 L 229.83081999999996 253.06826999999996 L 231.69791999999995 251.48176999999995 L 233.48187999999996 249.69779999999994 L 235.06837999999996 247.83071999999996 L 236.34311999999997 245.99479999999997 L 237.19179999999997 244.30435999999997 L 237.50009999999997 242.87373999999997 z M 300 205.62626 L 299.6917 204.19564 L 298.84302 202.5052 L 297.56827000000004 200.66928000000001 L 295.98177000000004 198.80220000000003 L 294.19781000000006 197.01824000000002 L 292.33071000000007 195.43172 L 290.4948100000001 194.15697 L 288.8044100000001 193.3083 L 287.37381000000005 193 L 250.12631000000005 193 L 248.69571000000005 193.3083 L 247.00529000000006 194.15697 L 245.16939000000005 195.43172 L 243.30229000000006 197.01824000000002 L 241.51834000000005 198.80220000000003 L 239.93182000000004 200.66928000000001 L 238.65708000000004 202.5052 L 237.80844000000005 204.19564 L 237.50014000000004 205.62626 L 237.50014000000004 242.87374 L 237.80844000000005 244.30436 L 238.65712000000005 245.9948 L 239.93188000000004 247.83071999999999 L 241.51838000000004 249.69779999999997 L 243.30234000000004 251.48175999999998 L 245.16944000000004 253.06825999999998 L 247.00534000000005 254.34301999999997 L 248.69577000000004 255.19169999999997 L 250.12637000000004 255.49999999999997 L 287.37385000000006 255.49999999999997 L 288.80449000000004 255.19169999999997 L 290.49492000000004 254.34301999999997 L 292.33082 253.06826999999996 L 294.19792 251.48176999999995 L 295.98188 249.69779999999994 L 297.56838 247.83071999999996 L 298.84312 245.99479999999997 L 299.6918 244.30435999999997 L 300.0001 242.87373999999997 z M 112.5 268.12626 L 112.1917 266.69564 L 111.34303 265.0052 L 110.06828 263.16928 L 108.48176000000001 261.3022 L 106.69781 259.51824000000005 L 104.83071000000001 257.93172000000004 L 102.99481000000002 256.65697000000006 L 101.30441000000002 255.80830000000006 L 99.87381000000002 255.50000000000006 L 62.6263 255.50000000000006 L 61.19567 255.80830000000006 L 59.50524 256.65697000000006 L 57.66934 257.93172000000004 L 55.80224 259.51824000000005 L 54.01828 261.3022 L 52.431779999999996 263.16928 L 51.15703 265.0052 L 50.30833 266.69564 L 50 268.12626 L 50 305.37374 L 50.3083 306.80436 L 51.156980000000004 308.4948 L 52.43173 310.33072 L 54.01823 312.1978 L 55.80219 313.98175999999995 L 57.669290000000004 315.56825999999995 L 59.505190000000006 316.84301999999997 L 61.19559 317.69169999999997 L 62.62619 317.99999999999994 L 99.87369000000001 317.99999999999994 L 101.30429000000001 317.69169999999997 L 102.99471000000001 316.84301999999997 L 104.83061000000001 315.56827 L 106.69771 313.98177 L 108.48166 312.1978 L 110.06818 310.33072 L 111.34291999999999 308.4948 L 112.19157 306.80436 L 112.49987 305.37374 z M 175 268.12626 L 174.6917 266.69564 L 173.84302 265.0052 L 172.56826999999998 263.16928 L 170.98176999999998 261.3022 L 169.19780999999998 259.51824000000005 L 167.33070999999998 257.93172000000004 L 165.49480999999997 256.65697000000006 L 163.80440999999996 255.80830000000006 L 162.37380999999996 255.50000000000006 L 125.12630999999996 255.50000000000006 L 123.69570999999996 255.80830000000006 L 122.00528999999996 256.65697000000006 L 120.16938999999996 257.93172000000004 L 118.30228999999997 259.51824000000005 L 116.51833999999997 261.3022 L 114.93183999999997 263.16928 L 113.65706999999996 265.0052 L 112.80842999999996 266.69564 L 112.50012999999996 268.12626 L 112.50012999999996 305.37374 L 112.80842999999996 306.80436 L 113.65710999999996 308.4948 L 114.93187999999996 310.33072 L 116.51837999999996 312.1978 L 118.30233999999996 313.98175999999995 L 120.16943999999995 315.56825999999995 L 122.00533999999995 316.84301999999997 L 123.69576999999995 317.69169999999997 L 125.12636999999995 317.99999999999994 L 162.37383999999994 317.99999999999994 L 163.80443999999994 317.69169999999997 L 165.49483999999995 316.84301999999997 L 167.33073999999996 315.56827 L 169.19783999999996 313.98177 L 170.98180999999997 312.1978 L 172.56830999999997 310.33072 L 173.84303999999997 308.4948 L 174.69173999999998 306.80436 L 175.00003999999998 305.37374 z M 237.5 268.12626 L 237.1917 266.69564 L 236.34302 265.0052 L 235.06826999999998 263.16928 L 233.48176999999998 261.3022 L 231.69780999999998 259.51824000000005 L 229.83070999999998 257.93172000000004 L 227.99480999999997 256.65697000000006 L 226.30440999999996 255.80830000000006 L 224.87380999999996 255.50000000000006 L 187.62630999999996 255.50000000000006 L 186.19570999999996 255.80830000000006 L 184.50528999999997 256.65697000000006 L 182.66938999999996 257.93172000000004 L 180.80228999999997 259.51824000000005 L 179.01833999999997 261.3022 L 177.43181999999996 263.16928 L 176.15707999999995 265.0052 L 175.30843999999996 266.69564 L 175.00013999999996 268.12626 L 175.00013999999996 305.37374 L 175.30843999999996 306.80436 L 176.15711999999996 308.4948 L 177.43187999999995 310.33072 L 179.01837999999995 312.1978 L 180.80233999999996 313.98175999999995 L 182.66943999999995 315.56825999999995 L 184.50533999999996 316.84301999999997 L 186.19576999999995 317.69169999999997 L 187.62636999999995 317.99999999999994 L 224.87384999999995 317.99999999999994 L 226.30448999999996 317.69169999999997 L 227.99491999999995 316.84301999999997 L 229.83081999999996 315.56827 L 231.69791999999995 313.98177 L 233.48187999999996 312.1978 L 235.06837999999996 310.33072 L 236.34311999999997 308.4948 L 237.19179999999997 306.80436 L 237.50009999999997 305.37374 z M 300 268.12626 L 299.6917 266.69564 L 298.84302 265.0052 L 297.56827000000004 263.16928 L 295.98177000000004 261.3022 L 294.19781000000006 259.51824000000005 L 292.33071000000007 257.93172000000004 L 290.4948100000001 256.65697000000006 L 288.8044100000001 255.80830000000006 L 287.37381000000005 255.50000000000006 L 250.12631000000005 255.50000000000006 L 248.69571000000005 255.80830000000006 L 247.00529000000006 256.65697000000006 L 245.16939000000005 257.93172000000004 L 243.30229000000006 259.51824000000005 L 241.51834000000005 261.3022 L 239.93182000000004 263.16928 L 238.65708000000004 265.0052 L 237.80844000000005 266.69564 L 237.50014000000004 268.12626 L 237.50014000000004 305.37374 L 237.80844000000005 306.80436 L 238.65712000000005 308.4948 L 239.93188000000004 310.33072 L 241.51838000000004 312.1978 L 243.30234000000004 313.98175999999995 L 245.16944000000004 315.56825999999995 L 247.00534000000005 316.84301999999997 L 248.69577000000004 317.69169999999997 L 250.12637000000004 317.99999999999994 L 287.37385000000006 317.99999999999994 L 288.80449000000004 317.69169999999997 L 290.49492000000004 316.84301999999997 L 292.33082 315.56827 L 294.19792 313.98177 L 295.98188 312.1978 L 297.56838 310.33072 L 298.84312 308.4948 L 299.6918 306.80436 L 300.0001 305.37374 z" stroke-linecap="round" />
</g>
</g>
</g>
</svg>